<svg width="200" height="240" viewBox="0 0 200 240" fill="none" xmlns="http://www.w3.org/2000/svg">
<g id="PEG Repeat Unit">
<path id="Backbone" d="M125 20L75 60L125 100L75 140L125 180" stroke="currentColor" stroke-width="2" stroke-linecap="round" stroke-linejoin="round"/>
<path id="Top Bracket" d="M65 12V0H135V12" stroke="currentColor" stroke-width="2" stroke-linecap="round" stroke-linejoin="round"/>
<path id="Bottom Bracket" d="M65 188V200H135V188" stroke="currentColor" stroke-width="2" stroke-linecap="round" stroke-linejoin="round"/>
<path id="O label" d="M152.631 99.7273C152.631 101.313 152.33 102.663 151.729 103.776C151.132 104.888 150.318 105.738 149.286 106.325C148.258 106.908 147.103 107.199 145.82 107.199C144.527 107.199 143.367 106.905 142.339 106.318C141.312 105.731 140.5 104.881 139.903 103.768C139.307 102.656 139.009 101.309 139.009 99.7273C139.009 98.1411 139.307 96.7917 139.903 95.679C140.5 94.5663 141.312 93.7187 142.339 93.1364C143.367 92.5492 144.527 92.2557 145.82 92.2557C147.103 92.2557 148.258 92.5492 149.286 93.1364C150.318 93.7187 151.132 94.5663 151.729 95.679C152.33 96.7917 152.631 98.1411 152.631 99.7273ZM149.513 99.7273C149.513 98.6998 149.359 97.8333 149.051 97.1278C148.748 96.4223 148.32 95.8873 147.766 95.5227C147.212 95.1581 146.563 94.9759 145.82 94.9759C145.076 94.9759 144.428 95.1581 143.874 95.5227C143.32 95.8873 142.889 96.4223 142.581 97.1278C142.278 97.8333 142.126 98.6998 142.126 99.7273C142.126 100.755 142.278 101.621 142.581 102.327C142.889 103.032 143.32 103.567 143.874 103.932C144.428 104.296 145.076 104.479 145.82 104.479C146.563 104.479 147.212 104.296 147.766 103.932C148.32 103.567 148.748 103.032 149.051 102.327C149.359 101.621 149.513 100.755 149.513 99.7273Z" fill="currentColor"/>
<path id="n subscript" d="M141.386 205.955V211H138.966V202.273H141.273V203.812H141.375C141.568 203.305 141.892 202.903 142.347 202.608C142.801 202.309 143.352 202.159 144 202.159C144.606 202.159 145.134 202.292 145.585 202.557C146.036 202.822 146.386 203.201 146.636 203.693C146.886 204.182 147.011 204.765 147.011 205.443V211H144.591V205.875C144.595 205.341 144.458 204.924 144.182 204.625C143.905 204.322 143.525 204.17 143.04 204.17C142.714 204.17 142.426 204.241 142.176 204.381C141.93 204.521 141.737 204.725 141.597 204.994C141.46 205.259 141.39 205.58 141.386 205.955Z" fill="currentColor"/>
</g>
</svg>
